<svg width="72" height="72" viewBox="0 0 72 72" fill="none" xmlns="http://www.w3.org/2000/svg">
<path d="M12 9C12 7.34315 13.3431 6 15 6H34.7574C35.553 6 36.3161 6.31607 36.8787 6.87868L47.1213 17.1213C47.6839 17.6839 48 18.447 48 19.2426V51C48 52.6569 46.6569 54 45 54H15C13.3431 54 12 52.6569 12 51V9Z" fill="#D3D3D3"/>
<path d="M47.7426 19.5C47.8848 19.5 48 19.3848 48 19.2426C48 18.447 47.6839 17.6839 47.1213 17.1213L36.8787 6.87868C36.3161 6.31607 35.553 6 34.7574 6C34.6152 6 34.5 6.11522 34.5 6.25736V18.5C34.5 19.0523 34.9477 19.5 35.5 19.5H47.7426Z" fill="#A8A8A8"/>
<path fill-rule="evenodd" clip-rule="evenodd" d="M43.0826 31.2632L28.2285 58.2705C26.799 60.8697 28.6794 64.05 31.6458 64.05H61.3539C64.3202 64.05 66.2007 60.8697 64.7711 58.2705L49.9171 31.2632C48.4354 28.5692 44.5643 28.5692 43.0826 31.2632Z" fill="#A8A8A8"/>
<path d="M46.5 40.65C47.577 40.65 48.45 41.523 48.45 42.6V50.4C48.45 51.477 47.577 52.35 46.5 52.35C45.4231 52.35 44.55 51.477 44.55 50.4V42.6C44.55 41.523 45.4231 40.65 46.5 40.65Z" fill="#F9F9F9"/>
<path d="M46.5 58.2C47.577 58.2 48.45 57.327 48.45 56.25C48.45 55.173 47.577 54.3 46.5 54.3C45.4231 54.3 44.55 55.173 44.55 56.25C44.55 57.327 45.4231 58.2 46.5 58.2Z" fill="#F9F9F9"/>
</svg>
